<?xml version="1.0" encoding="utf-8"?>
<!-- Generator: Adobe Illustrator 27.5.0, SVG Export Plug-In . SVG Version: 6.00 Build 0)  -->
<svg version="1.1" id="レイヤー_1" xmlns="http://www.w3.org/2000/svg" xmlns:xlink="http://www.w3.org/1999/xlink" x="0px"
	 y="0px" viewBox="0 0 1946.8 2367.7" style="enable-background:new 0 0 1946.8 2367.7;" xml:space="preserve">
<style type="text/css">
	.st0{clip-path:url(#SVGID_00000127727226633808786660000010376996563005434041_);}
	.st1{fill:none;stroke:#FFFFFF;stroke-width:3;stroke-linecap:round;stroke-miterlimit:10;stroke-dasharray:5.994,17.981;}
	.st2{fill:none;stroke:#FFFFFF;stroke-width:3;stroke-linecap:round;stroke-miterlimit:10;stroke-dasharray:6.005,18.014;}
	.st3{fill-rule:evenodd;clip-rule:evenodd;fill:#FFFFFF;}
</style>
<g>
	<defs>
		<rect id="SVGID_1_" x="2710.5" y="-552.4" width="1440" height="1043.8"/>
	</defs>
	<clipPath id="SVGID_00000093140345107608346500000005779621376227808662_">
		<use xlink:href="#SVGID_1_"  style="overflow:visible;"/>
	</clipPath>
	<g style="clip-path:url(#SVGID_00000093140345107608346500000005779621376227808662_);">
		<circle class="st1" cx="2337.7" cy="-1025" r="1095"/>
		<circle class="st1" cx="2871.7" cy="-762" r="1095"/>
		<circle class="st2" cx="2449.7" cy="374" r="753"/>
	</g>
</g>
<path class="st3" d="M-2206.9-1226v719.9c0-42.6,22.3-82.1,58.8-104.1l793.7-478.9c66.8-40.3,175-40.3,241.8,0l793.7,478.9
	c36.5,22,58.8,61.5,58.8,104.1V-1226H-2206.9z"/>
<g>
	<path class="st3" d="M23.9,684.2l676.2-421.8c167.2-104.3,379.2-104.3,546.4,0l676.2,421.8c13.2,8.2,21.3,21,24,34.9V0H0v718.4
		C2.8,704.8,10.9,692.3,23.9,684.2z"/>
</g>
</svg>
