<?xml version="1.0" encoding="UTF-8"?>
<svg id="_レイヤー_2" data-name="レイヤー 2" xmlns="http://www.w3.org/2000/svg" viewBox="0 0 262.88 269.18">
  <defs>
    <style>
      .cls-1 {
        fill: #093053;
      }

      .cls-1, .cls-2, .cls-3 {
        stroke-width: 0px;
      }

      .cls-2 {
        fill: #0c2d50;
      }

      .cls-4 {
        fill: #77a8c7;
        stroke: #0d2e53;
        stroke-width: 13.42px;
      }

      .cls-4, .cls-5, .cls-6 {
        stroke-miterlimit: 10;
      }

      .cls-3 {
        fill: #66b3dd;
      }

      .cls-5 {
        fill: #91cfd3;
      }

      .cls-5, .cls-6 {
        stroke: #0e3058;
        stroke-width: 4.47px;
      }

      .cls-6 {
        fill: #90d0d4;
      }
    </style>
  </defs>
  <g id="_レイヤー_2-2" data-name="レイヤー 2">
    <circle class="cls-1" cx="130.28" cy="151.91" r="29.81"/>
    <path class="cls-4" d="m74.24,58.16s-8.68-37.78,23.99-48.77c32.67-10.99,46.56,14.57,50.87,27.36,4.32,12.82-1.88,42.73-11.43,63.35-6.98,15.07-10.3,28.52-11,36.36-.23,2.55-2.81,4.17-5.21,3.24-7.35-2.83-20.88-5.77-37.49-6.14-22.72-.5-52.31-8.11-61.92-17.63-9.59-9.5-26.42-33.23-2.17-57.72,24.25-24.49,54.35-.06,54.35-.06Z"/>
    <path class="cls-5" d="m212.05,205.56c11.14,19.84,4.09,44.96-15.76,56.11-19.84,11.14-44.96,4.09-56.11-15.76-8.18-14.56-18.42-53.12-15.44-77,1.08-8.65,3.89-15.38,9.17-18.35,5.27-2.96,12.46-1.87,20.39,1.7,21.95,9.87,49.56,38.72,57.74,53.29Z"/>
    <path class="cls-6" d="m119.98,146.72c4.11,4.56,4.58,11.99,2.75,20.69-4.97,23.56-26.84,56.52-39.18,67.64-16.9,15.24-42.96,13.89-58.2-3.01-15.24-16.9-13.89-42.96,3.01-58.2,12.35-11.13,47.43-29.5,71.38-32,8.83-.92,16.14.32,20.25,4.87Z"/>
    <g>
      <path class="cls-2" d="m2.72,215.92c.81-.11,2.48-.37,3.1-.48.94-.18,1.02-.24,1.02-.24.07.15.13.27.15.43.06.44-.11.9-.49.95-1.14.15-2.04.23-2.8.33-1.26.17-1.96.27-2.9.41l.29,1.78c.11.63.23,1.05.39,1.28-.11.02-.19.04-.27.05-.63.08-.71-.12-.81-.84l-.42-3.42s.29.07,2.72-.26Z"/>
      <path class="cls-2" d="m4.36,223.31l.09-.02c.81-.19,1.22-.48,1.04-1.22-.11-.47-.49-.91-.89-1.19l.03-.05c.61.02,1.39.66,1.59,1.5.32,1.36-.45,1.74-1.33,1.95-.51.12-1.16.24-1.69.37l-.12.03c-.37.09-1.06.26-.95.73.05.19.22.33.22.33l-.02.04s-.65-.1-.85-.93c-.09-.39-.03-.85.48-.98v-.04c-.45-.13-.89-.53-1.04-1.13-.19-.81.29-1.42.99-1.58,1.39-.33,2.18,1.14,2.44,2.18Zm-2.64-.31c.08.33.5.79.86.7.38-.09.9-.18,1.39-.3-.16-.38-.6-1.47-1.62-1.23-.58.14-.72.49-.64.83Z"/>
      <path class="cls-2" d="m4.34,226.29c.69-.24,1.41-.5,2.1-.74.86-.3,2.6-.91,2.72-1.16h.05c.4,1.19,0,1.38-1.1,1.76-.73.25-1.52.42-1.52.42v.03s.86.11,1.26,1.25c.37,1.06-.35,2.04-1.53,2.45-1.62.56-3.12.09-3.76-1.76-.27-.77-.22-1.57.34-1.77.51-.18.99-.32,1.46-.48Zm1.36,2.97c.86-.3,1.62-.97,1.39-1.61-.19-.56-.76-.83-1.5-.67-.42.09-.86.24-1.29.4-.81.28-1.5.55-1.29,1.15.35,1.01,1.62,1.11,2.69.74Z"/>
      <path class="cls-2" d="m9.83,232.61c.72,1.49.05,2.76-1.02,3.28-1.32.64-2.99.44-3.73-1.09-.72-1.49,0-2.78,1.16-3.34,1.27-.61,2.85-.38,3.59,1.16Zm-4.3,2.08c.38.79,1.58.68,2.59.19.93-.45,1.66-1.32,1.25-2.17-.38-.79-1.51-.71-2.46-.25-1,.48-1.79,1.38-1.38,2.22Z"/>
      <path class="cls-2" d="m9.26,237.29c1.7-1.05,2.04-1.51,2.05-1.56.13.12.25.23.33.36.24.39.23.8-.12,1.01-.13.08-.35.13-.35.13v.04c.69-.09,1.37.28,1.65.74.2.33.11.5-.07.61-.18.11-.44.23-.66.27l-.04-.03c-.03-.35-.06-.62-.18-.82-.41-.65-1.2-.42-2.13.16-1.65,1.02-1.84,1.39-1.84,1.41-.16-.19-.34-.36-.45-.54-.19-.31-.2-.61.32-.93.5-.31,1.02-.58,1.48-.86Z"/>
      <path class="cls-2" d="m13.69,242.52l.07-.05c.65-.51.9-.94.44-1.54-.3-.38-.82-.62-1.31-.71v-.05c.57-.24,1.55.01,2.08.7.86,1.11.32,1.77-.39,2.32-.41.32-.95.71-1.38,1.04l-.09.07c-.3.24-.86.68-.56,1.06.12.16.34.21.34.21v.05s-.63.18-1.16-.49c-.25-.32-.38-.76.03-1.09v-.04c-.48.08-1.05-.1-1.43-.59-.51-.65-.33-1.41.23-1.85,1.13-.88,2.45.13,3.13.96Zm-2.53.82c.21.26.78.5,1.08.27.31-.24.74-.54,1.14-.85-.3-.28-1.16-1.09-1.99-.44-.47.37-.44.75-.23,1.02Z"/>
      <path class="cls-2" d="m15.14,245.28c.35-.35.7-.73,1.02-1.07.64-.71.6-.88.6-.88.15.08.29.17.4.28.32.32.38.71.16.93-.09.09-.2.14-.2.14l.02.04c.52-.2,1.32.12,1.82.62.92.92.52,1.52.01,2.03-.51.51-1,.94-1.6,1.54-.32.31-.73.74-.39,1.08.14.14.36.17.36.17v.05s-.6.26-1.2-.34c-.31-.31-.48-.78-.06-1.19.6-.6,1.04-1,1.76-1.71.48-.48.93-.95.33-1.56-.38-.38-1.18-.5-1.84.16-.63.63-1.08,1.13-1.74,1.79-.38.38-.67.28-.91.03-.15-.15-.29-.36-.42-.57.07.03.63-.29,1.88-1.54Z"/>
      <path class="cls-2" d="m23.18,249c.15.12.28.24.39.36.31-.41.59-.8.8-1.11.51-.75.53-.99.53-.99h.05c.52.4.94.86.56,1.34-.58.75-1.19,1.47-1.91,2.41-.53.7-1.07,1.42-1.57,2.13-.2.27-.32.58-.04.79.16.12.38.12.38.12v.05s-.55.33-1.23-.18c-.32-.25-.56-.63-.23-1.07l-.02-.04s-.8.37-1.7-.32c-.9-.69-.92-1.87-.1-2.93,1.03-1.34,2.54-1.74,4.08-.55Zm-1.38,2.64c.21-.25.55-.67.76-.94l.56-.73c.19-.24-.04-.48-.32-.7-.83-.64-1.93-.08-2.6.79-.41.54-1,1.61-.28,2.16.68.52,1.46-.06,1.89-.59Z"/>
      <path class="cls-2" d="m25.12,254.77l.06.03s.25,1.18,1.41,1.81c.85.46,1.38.17,1.64-.3.74-1.37-2.47-2.88-1.44-4.78.62-1.15,2.04-1.2,3.14-.6.47.25,1.63,1.11,1.37,1.6-.12.22-.41.43-.72.52l-.06-.03s-.1-1.21-1.03-1.71c-.59-.32-1.24-.14-1.54.42-.73,1.35,2.54,2.75,1.46,4.75-.65,1.21-2.14,1.22-3.23.63-.74-.4-1.84-1.38-1.54-1.93.08-.16.33-.3.49-.4Z"/>
      <path class="cls-2" d="m34.03,254.98c1.55.6,1.92,1.98,1.49,3.09-.53,1.37-1.89,2.36-3.47,1.75-1.55-.6-1.9-2.04-1.44-3.23.51-1.32,1.82-2.23,3.42-1.61Zm-1.72,4.46c.82.32,1.62-.58,2.03-1.63.37-.97.32-2.1-.57-2.44-.82-.32-1.59.52-1.97,1.5-.4,1.04-.36,2.23.51,2.57Z"/>
      <path class="cls-2" d="m39.62,256.74c.4.1,1.49.56,1.36,1.07-.05.19-.29.42-.5.55h-.05s-.31-1.02-1.14-1.23c-.95-.24-1.55.72-1.76,1.54-.29,1.13.1,2.19,1.08,2.44.74.19,1.71-.23,1.71-.23l.03.05s-.73,1.19-2.32.78c-1.27-.33-2.04-1.63-1.7-2.97.38-1.47,1.74-2.42,3.28-2.02Z"/>
      <path class="cls-2" d="m41.95,259.97c.37-2.22.2-2.56.19-2.56.17-.02.34-.03.49,0,.44.07.79.37.72.76-.17,1.03-.42,2.19-.54,2.91-.07.44-.16,1.03.32,1.11.19.03.39-.07.39-.07l.03.04s-.34.56-1.18.42c-.43-.07-.84-.35-.74-.94.09-.56.23-1.11.32-1.66Zm.53-4.12c.06-.36.41-.61.76-.55.36.06.61.41.55.77-.06.35-.41.6-.77.54-.35-.06-.6-.41-.54-.76Z"/>
      <path class="cls-2" d="m47.19,259.97v-.09c.08-.83-.07-1.3-.83-1.37-.48-.04-1.02.18-1.41.48l-.04-.04c.21-.58,1.06-1.12,1.92-1.05,1.4.12,1.51.97,1.44,1.87-.04.52-.13,1.18-.17,1.72v.12c-.04.38-.09,1.09.39,1.13.2.02.39-.11.39-.11l.04.03s-.3.59-1.14.52c-.4-.03-.81-.24-.78-.76l-.04-.02c-.26.39-.78.7-1.4.65-.83-.07-1.26-.71-1.2-1.43.12-1.43,1.76-1.71,2.83-1.64Zm-1.12,2.41c.33.03.9-.23.93-.61.03-.39.11-.91.15-1.41-.41.04-1.58.11-1.67,1.16-.05.59.25.83.59.86Z"/>
      <path class="cls-2" d="m50.06,259.23c0-.93,0-1.82-.04-2.45-.04-.91-.17-1.11-.17-1.11l.03-.04c.66.01,1.27.12,1.27.74,0,1-.05,2.03-.06,3.08,0,.88,0,1.78.02,2.65,0,.33.09.65.44.65.2,0,.38-.14.38-.14l.04.03s-.25.61-1.1.61c-.43,0-.89-.2-.88-.86,0-.81.06-2.01.07-3.16Z"/>
      <path class="cls-2" d="m54.25,261.7h.07s.87.83,2.18.69c.96-.1,1.23-.64,1.18-1.17-.16-1.55-3.66-.98-3.88-3.13-.13-1.3,1.01-2.14,2.25-2.26.53-.05,1.97,0,2.03.55.02.24-.1.58-.3.83h-.07s-.76-.94-1.81-.83c-.67.07-1.1.59-1.04,1.22.16,1.53,3.64.83,3.88,3.09.14,1.36-1.07,2.21-2.31,2.34-.83.09-2.29-.1-2.35-.72-.02-.17.1-.44.18-.6Z"/>
      <path class="cls-2" d="m61.52,256.94c1.28-.26,1.93.36,2.06,1.02.2.97-.74,1.52-1.59,1.7-.56.12-1.12-.05-1.12-.05l-.03.03c.24,1.16.94,1.84,1.94,1.64.79-.16,1.4-.86,1.4-.86l.06.04s-.08,1.3-1.7,1.63c-1.29.27-2.46-.55-2.75-1.97-.28-1.33.33-2.87,1.74-3.16Zm.18,2.27c.44-.09.86-.43.74-1.03-.09-.46-.39-.89-.95-.77-.69.14-.81,1.39-.74,1.75.02.08.54.13.95.05Z"/>
      <path class="cls-2" d="m66.65,255.61c.4-.12,1.57-.29,1.72.21.06.19-.03.51-.14.73h-.05s-.79-.68-1.61-.44c-.94.28-.95,1.42-.7,2.24.34,1.11,1.22,1.83,2.19,1.53.73-.22,1.34-1.08,1.34-1.08l.05.03s0,1.39-1.58,1.87c-1.26.38-2.59-.34-2.99-1.66-.44-1.46.23-2.97,1.76-3.43Z"/>
      <path class="cls-2" d="m70.13,256.9c-.09-.22-.28-.69-.49-1.12-.18-.36-.37-.69-.54-.8.14-.1.27-.21.41-.27.41-.17.87-.1,1.01.27.31.77.51,1.34.89,2.25.3.74.63,1.37,1.34,1.08.86-.35.65-1.57.33-2.35-.24-.59-.47-1.09-.62-1.4-.32-.59-.49-.76-.49-.76.14-.11.27-.21.41-.27.43-.17.87-.1,1.03.27.35.86.62,1.74,1.05,2.77.15.37.42.94.84.76.18-.08.29-.27.29-.27h.05s0,.67-.78.99c-.36.15-.81.13-1-.35-.01-.03-.02-.08-.02-.08h-.05s-.03.94-1.14,1.39c-1.19.49-1.71-.12-2.02-.87-.16-.38-.3-.79-.49-1.26Z"/>
      <path class="cls-2" d="m75.94,254.83c-.9-1.79-1.32-2.17-1.37-2.18.13-.12.25-.23.39-.3.41-.2.82-.16,1,.21.07.13.1.36.1.36h.04c-.03-.69.4-1.34.88-1.58.34-.17.51-.07.6.13s.19.46.21.68l-.04.04c-.35,0-.63,0-.83.11-.69.35-.52,1.16-.03,2.14.87,1.74,1.22,1.96,1.24,1.96-.2.15-.39.31-.57.4-.33.16-.62.15-.9-.4-.27-.53-.48-1.07-.73-1.56Z"/>
      <path class="cls-2" d="m77.31,249.43c-.18-.32-.07-.73.24-.91.32-.18.73-.07.92.25.18.31.06.73-.26.91-.31.17-.73.06-.9-.25Zm2.19,3.52c-1.12-1.96-1.46-2.11-1.47-2.1.12-.12.24-.24.38-.32.39-.22.85-.21,1.04.13.52.91,1.06,1.96,1.42,2.6.22.39.52.9.94.66.17-.1.26-.31.26-.31h.05s.09.66-.65,1.08c-.38.22-.88.26-1.17-.25-.28-.49-.53-1.01-.8-1.49Z"/>
      <path class="cls-2" d="m81.49,250.48c-.45-.71-.53-.7-.92-.6l-.22-.35c.36-.23.71-1.43.64-1.77l.23-.06.41,1.01.68-.43c.34-.22.4-.37.4-.37.04.05.12.18.15.22.22.35.1.53-.2.72-.09.06-.68.41-.68.41,0,0,.6,1,1,1.63.52.83,1.04,1.48,1.69,1.07.41-.26.63-.95.63-.95h.06s.33,1.14-.68,1.79c-.97.62-1.69.12-2.29-.82-.34-.54-.71-1.19-.91-1.5Z"/>
      <path class="cls-2" d="m87.68,252.29c.46-.34.72-.83.55-1.62l-.09-.39c-.31.13-.75.21-1.14-.09-.75-.57-2.36-1.74-3.11-2.17-.2-.11-.42-.23-.67-.25l-.03-.04c.14-.15.27-.3.55-.5.27-.2.61-.31.86-.11.67.57,2.32,1.72,3.31,2.35-1.2-3.97-1.82-3.95-1.12-4.45.25-.18.41-.2.41-.2l.03.04s-.11.29.12,1.04l1.24,4.2c.44,1.52.15,2.51-.5,2.99-.55.4-.71.05-1.09-.43.25-.11.48-.23.67-.37Z"/>
      <path class="cls-2" d="m91.53,247.66s.07-.34-.33-1.35l-2.23-5.7s.79-.63,1.81.01c1.1.69,3.51,2.12,4.6,2.62.62.29.74.34.87.3l.03.04s-.22.32-.48.55c-.33.29-.71.39-1.07.15-.39-.25-.95-.61-1.6-1-.24.19-.5.41-.76.63-.38.33-.75.68-1.05.96.73,1.74,1.15,2.15.57,2.66-.13.11-.33.16-.33.16l-.03-.04Zm.36-3.97c.26-.23.51-.46.75-.68-.96-.56-1.98-1.14-2.75-1.55l-.04.03c.48,1.2.9,2.13,1.22,2.88.25-.2.53-.43.81-.68Z"/>
      <path class="cls-2" d="m94.64,240.22c-.59-.6-.66-.58-1.02-.39l-.29-.29c.3-.3.39-1.55.25-1.87l.22-.1.61.91.58-.57c.29-.28.31-.44.31-.44.05.03.16.15.19.18.29.3.21.5-.04.75-.08.08-.58.55-.58.55,0,0,.79.85,1.32,1.39.68.7,1.33,1.23,1.87.69.34-.34.42-1.06.42-1.06h.06s.56,1.03-.3,1.88c-.82.81-1.63.47-2.4-.32-.45-.46-.94-1.01-1.2-1.28Z"/>
      <path class="cls-2" d="m97.34,237.51c-.61-.57-.69-.55-1.04-.35l-.3-.28c.29-.31.32-1.56.17-1.88l.21-.11.65.88.55-.59c.28-.29.29-.46.29-.46.05.03.17.14.2.17.3.28.23.49-.01.75-.07.08-.56.57-.56.57,0,0,.83.82,1.38,1.33.71.67,1.38,1.17,1.9.61.33-.35.38-1.08.38-1.08h.06s.61,1-.22,1.88c-.79.84-1.61.54-2.42-.22-.47-.44-.98-.97-1.26-1.23Z"/>
      <path class="cls-2" d="m100.15,232.04c1.07-1.27,2.5-1.17,3.41-.4,1.12.95,1.61,2.55.52,3.85-1.07,1.27-2.54,1.13-3.52.3-1.08-.91-1.51-2.45-.41-3.75Zm3.65,3.08c.57-.67-.02-1.72-.88-2.45-.79-.67-1.88-.98-2.49-.26-.57.67-.03,1.67.78,2.35.85.72,1.99,1.07,2.59.36Z"/>
      <path class="cls-2" d="m104.67,230.78c-1.59-1.22-2.13-1.37-2.19-1.37.06-.16.13-.31.22-.44.28-.36.67-.49.99-.25.12.09.25.28.25.28l.03-.03c-.33-.6-.22-1.37.11-1.79.23-.3.43-.28.6-.15s.37.33.48.52v.05c-.33.15-.58.28-.71.46-.47.61.03,1.27.9,1.94,1.54,1.18,1.95,1.23,1.97,1.22-.12.22-.22.44-.34.61-.22.29-.5.4-.98.03-.47-.36-.9-.75-1.33-1.08Z"/>
      <path class="cls-2" d="m107.1,227.51c-.4-.28-.84-.56-1.24-.82-.81-.51-.97-.44-.97-.44.06-.17.11-.32.21-.45.26-.37.63-.49.89-.32.11.07.18.17.18.17l.03-.03c-.29-.48-.11-1.32.29-1.9.75-1.07,1.4-.78,1.99-.37.59.41,1.1.82,1.8,1.3.36.25.86.59,1.13.19.11-.16.1-.39.1-.39l.05-.02s.36.55-.13,1.25c-.25.36-.68.61-1.16.27-.7-.49-1.17-.85-1.99-1.43-.56-.39-1.1-.75-1.59-.05-.31.44-.28,1.25.48,1.78.73.51,1.3.86,2.07,1.4.44.31.39.61.19.89-.12.17-.31.35-.48.52.02-.07-.4-.57-1.85-1.58Z"/>
      <path class="cls-2" d="m109.28,219.47c.7-1.1,1.6-1.14,2.16-.78.83.53.58,1.59.12,2.33-.31.48-.81.77-.81.77v.04c1,.63,1.98.6,2.52-.26.43-.68.35-1.61.35-1.61l.07-.02s.88.95,0,2.36c-.71,1.12-2.1,1.39-3.33.62-1.15-.73-1.84-2.22-1.07-3.44Zm1.76,1.45c.24-.38.29-.92-.23-1.24-.39-.25-.91-.33-1.21.15-.37.59.44,1.55.75,1.75.07.04.47-.3.69-.65Z"/>
      <path class="cls-2" d="m116.59,219.93c.29-.5.32-1.05-.16-1.7l-.24-.32c-.23.24-.6.5-1.07.38-.92-.21-2.86-.62-3.72-.71-.23-.02-.48-.04-.71.05l-.04-.02c.06-.19.13-.38.3-.68.17-.29.43-.54.74-.45.84.24,2.82.62,3.98.79-2.71-3.13-3.27-2.86-2.84-3.61.15-.26.29-.35.29-.35l.04.02s.02.31.53.9l2.84,3.32c1.02,1.21,1.16,2.23.76,2.93-.34.59-.62.33-1.17.05.18-.2.35-.4.46-.61Z"/>
    </g>
    <path class="cls-5" d="m232.48,150.47c-.26.09-.52.17-.79.26-15.68,4.96-54.86,7.33-78.17-.4-9.36-3.1-15-7.49-16.76-13.04-1.77-5.58.35-12.45,6.28-20.41,14.66-19.7,48.02-40.24,63.64-45.19,10.56-3.34,21.78-2.37,31.61,2.73,9.83,5.1,17.08,13.73,20.42,24.28h0c6.81,21.52-4.94,44.56-26.23,51.76Z"/>
    <path class="cls-3" d="m74.24,58.16s-8.68-37.78,23.99-48.77c32.67-10.99,46.56,14.57,50.87,27.36,4.32,12.82-1.88,42.73-11.43,63.35-6.98,15.07-10.3,28.52-11,36.36-.23,2.55-2.81,4.17-5.21,3.24-7.35-2.83-20.88-5.77-37.49-6.14-22.72-.5-52.31-8.11-61.92-17.63-9.59-9.5-26.42-33.23-2.17-57.72,24.25-24.49,54.35-.06,54.35-.06Z"/>
  </g>
</svg>