<?xml version="1.0" encoding="UTF-8"?>
<svg id="_レイヤー_1" data-name="レイヤー 1" xmlns="http://www.w3.org/2000/svg" viewBox="0 0 76.84 50.96">
  <defs>
    <style>
      .cls-1 {
        isolation: isolate;
      }
    </style>
  </defs>
  <g id="_01" data-name=" 01" class="cls-1">
    <g class="cls-1">
      <path d="m17.5,50.96C5.83,50.96,0,42.77,0,26.39,0,17.89,1.58,11.41,4.73,6.96,7.89,2.5,12.46.27,18.46.27c11.39,0,17.09,8.33,17.09,24.99,0,8.29-1.55,14.65-4.67,19.07-3.11,4.42-7.57,6.63-13.38,6.63Zm.48-42.45c-4.67,0-7.01,5.87-7.01,17.6,0,11.05,2.29,16.58,6.87,16.58s6.7-5.7,6.7-17.09-2.19-17.09-6.56-17.09Z"/>
      <path d="m76.84,0v50.11h-10.77V12.17c-.59.52-1.29,1.02-2.1,1.49-.81.47-1.67.89-2.58,1.27-.91.38-1.86.7-2.84.96s-1.95.45-2.91.56V7.35c2.8-.82,5.45-1.87,7.93-3.14,2.48-1.28,4.73-2.68,6.73-4.2h6.53Z"/>
    </g>
  </g>
</svg>